<svg width="170" height="42" viewBox="0 0 170 42" fill="none" xmlns="http://www.w3.org/2000/svg">
<path d="M22.75 3.5L5.25 24.5H21L19.25 38.5L36.75 17.5H21L22.75 3.5Z" stroke="#FF7A00" stroke-width="1.6" stroke-linecap="round" stroke-linejoin="round"/>
<path d="M50.5256 27H45.5256L47.9403 12.4545H52.8977C54.3419 12.4545 55.5398 12.7528 56.4915 13.3494C57.4432 13.946 58.1108 14.7983 58.4943 15.9062C58.8826 17.0095 58.9489 18.3258 58.6932 19.8551C58.447 21.3513 57.9616 22.6321 57.2372 23.6974C56.5128 24.7628 55.5824 25.5795 54.446 26.1477C53.3097 26.7159 52.0028 27 50.5256 27ZM48.5369 24.7202H50.6605C51.669 24.7202 52.5473 24.5284 53.2955 24.1449C54.0483 23.7566 54.6615 23.1813 55.1349 22.419C55.6132 21.652 55.9446 20.7003 56.1293 19.5639C56.3139 18.4749 56.3021 17.5753 56.0938 16.8651C55.8854 16.1501 55.4806 15.6174 54.8793 15.267C54.2827 14.9119 53.492 14.7344 52.5071 14.7344H50.1918L48.5369 24.7202ZM64.7053 27.2131C63.6115 27.2131 62.7071 26.9858 61.9922 26.5312C61.2772 26.072 60.7753 25.4233 60.4865 24.5852C60.2024 23.7424 60.1551 22.7505 60.3445 21.6094C60.5291 20.4872 60.9055 19.5024 61.4737 18.6548C62.0419 17.8026 62.7521 17.1397 63.6044 16.6662C64.4614 16.188 65.4084 15.9489 66.4453 15.9489C67.1177 15.9489 67.7356 16.0578 68.299 16.2756C68.8625 16.4886 69.3383 16.8201 69.7266 17.2699C70.1148 17.7197 70.3823 18.2926 70.5291 18.9886C70.6759 19.6799 70.6688 20.5038 70.5078 21.4602L70.3871 22.2486H61.4382L61.7152 20.5156H68.1925C68.2777 20.0232 68.2493 19.5852 68.1072 19.2017C67.9652 18.8134 67.7285 18.508 67.397 18.2855C67.0656 18.063 66.6513 17.9517 66.1541 17.9517C65.6475 17.9517 65.174 18.0819 64.7337 18.3423C64.2981 18.598 63.9311 18.9295 63.6328 19.3366C63.3345 19.7438 63.1451 20.1723 63.0646 20.6222L62.7734 22.2841C62.6693 22.9659 62.6929 23.5223 62.8445 23.9531C62.996 24.384 63.2611 24.7012 63.6399 24.9048C64.0187 25.1084 64.4969 25.2102 65.0746 25.2102C65.4534 25.2102 65.8037 25.1581 66.1257 25.054C66.4477 24.9498 66.7341 24.7936 66.9851 24.5852C67.2408 24.3722 67.4538 24.1117 67.6243 23.804L69.9751 24.0739C69.7147 24.7083 69.3336 25.2623 68.8317 25.7358C68.3298 26.2045 67.7285 26.5691 67.0277 26.8295C66.3317 27.0852 65.5575 27.2131 64.7053 27.2131ZM76.7649 12.4545L74.3501 27H71.7791L74.1939 12.4545H76.7649ZM76.994 27L78.8121 16.0909H81.3832L79.565 27H76.994ZM80.4741 14.5284C80.0621 14.5284 79.7212 14.3911 79.4513 14.1165C79.1815 13.8419 79.0631 13.5128 79.0962 13.1293C79.1294 12.7457 79.3022 12.4167 79.6147 12.142C79.9319 11.8674 80.2942 11.7301 80.7013 11.7301C81.1133 11.7301 81.4518 11.8674 81.717 12.142C81.9869 12.4167 82.1052 12.7457 82.0721 13.1293C82.0437 13.5128 81.8709 13.8419 81.5536 14.1165C81.2411 14.3911 80.8813 14.5284 80.4741 14.5284ZM93.7713 16.0909L88.0682 27H85.2273L83.1605 16.0909H85.8026L86.9673 24.1946H87.081L90.9375 16.0909H93.7713ZM98.1623 27.2131C97.0685 27.2131 96.1642 26.9858 95.4492 26.5312C94.7343 26.072 94.2324 25.4233 93.9435 24.5852C93.6594 23.7424 93.6121 22.7505 93.8015 21.6094C93.9862 20.4872 94.3626 19.5024 94.9308 18.6548C95.4989 17.8026 96.2092 17.1397 97.0614 16.6662C97.9184 16.188 98.8654 15.9489 99.9023 15.9489C100.575 15.9489 101.193 16.0578 101.756 16.2756C102.319 16.4886 102.795 16.8201 103.184 17.2699C103.572 17.7197 103.839 18.2926 103.986 18.9886C104.133 19.6799 104.126 20.5038 103.965 21.4602L103.844 22.2486H94.8952L95.1722 20.5156H101.65C101.735 20.0232 101.706 19.5852 101.564 19.2017C101.422 18.8134 101.185 18.508 100.854 18.2855C100.523 18.063 100.108 17.9517 99.6112 17.9517C99.1045 17.9517 98.631 18.0819 98.1907 18.3423C97.7551 18.598 97.3881 18.9295 97.0898 19.3366C96.7915 19.7438 96.6022 20.1723 96.5217 20.6222L96.2305 22.2841C96.1263 22.9659 96.15 23.5223 96.3015 23.9531C96.453 24.384 96.7182 24.7012 97.0969 24.9048C97.4757 25.1084 97.954 25.2102 98.5316 25.2102C98.9104 25.2102 99.2608 25.1581 99.5827 25.054C99.9047 24.9498 100.191 24.7936 100.442 24.5852C100.698 24.3722 100.911 24.1117 101.081 23.804L103.432 24.0739C103.172 24.7083 102.791 25.2623 102.289 25.7358C101.787 26.2045 101.185 26.5691 100.485 26.8295C99.7887 27.0852 99.0146 27.2131 98.1623 27.2131ZM105.236 27L107.054 16.0909H109.547L109.242 17.9091H109.355C109.654 17.2794 110.075 16.794 110.62 16.4531C111.169 16.1075 111.756 15.9347 112.381 15.9347C112.528 15.9347 112.686 15.9418 112.857 15.956C113.027 15.9654 113.174 15.982 113.297 16.0057L112.9 18.3707C112.791 18.3329 112.62 18.2997 112.388 18.2713C112.161 18.2382 111.936 18.2216 111.713 18.2216C111.245 18.2216 110.809 18.3234 110.407 18.527C110.009 18.7259 109.673 19.0028 109.398 19.358C109.123 19.7131 108.946 20.1226 108.865 20.5866L107.807 27H105.236ZM114.448 31.0909C114.097 31.0909 113.778 31.0625 113.489 31.0057C113.205 30.9536 112.98 30.892 112.814 30.821L113.752 28.8182C114.107 28.9271 114.426 28.9744 114.711 28.9602C114.999 28.9508 115.265 28.8537 115.506 28.669C115.752 28.4891 115.994 28.1932 116.23 27.7812L116.557 27.1918L114.469 16.0909H117.097L118.233 24.3438H118.347L122.246 16.0909H125.08L118.695 28.3068C118.387 28.8987 118.03 29.4006 117.623 29.8125C117.215 30.2292 116.749 30.5464 116.223 30.7642C115.703 30.982 115.111 31.0909 114.448 31.0909ZM132.392 16.0909L132.058 18.0795H125.609L125.943 16.0909H132.392ZM125.73 27L127.725 15.0611C127.839 14.3272 128.088 13.7164 128.471 13.2287C128.859 12.741 129.331 12.3764 129.885 12.1349C130.443 11.8935 131.038 11.7727 131.667 11.7727C132.117 11.7727 132.508 11.8082 132.839 11.8793C133.171 11.9503 133.412 12.0142 133.564 12.071L132.733 14.0597C132.624 14.0265 132.491 13.9934 132.335 13.9602C132.183 13.9223 132.006 13.9034 131.802 13.9034C131.324 13.9034 130.967 14.0194 130.73 14.2514C130.493 14.4787 130.337 14.8054 130.261 15.2315L128.308 27H125.73ZM135.339 27.2202C134.648 27.2202 134.047 27.0971 133.535 26.8509C133.024 26.5999 132.647 26.2306 132.406 25.7429C132.169 25.2552 132.11 24.6539 132.228 23.9389C132.333 23.3234 132.531 22.8144 132.825 22.4119C133.123 22.0095 133.488 21.6875 133.919 21.446C134.354 21.1998 134.828 21.0152 135.339 20.892C135.855 20.7689 136.381 20.679 136.916 20.6222C137.569 20.5559 138.097 20.4943 138.5 20.4375C138.907 20.3807 139.212 20.2955 139.416 20.1818C139.619 20.0634 139.743 19.8835 139.785 19.642V19.5994C139.87 19.0644 139.785 18.6501 139.529 18.3565C139.274 18.063 138.848 17.9162 138.251 17.9162C137.626 17.9162 137.1 18.0535 136.674 18.3281C136.248 18.6027 135.938 18.9271 135.744 19.3011L133.414 18.9602C133.708 18.2973 134.11 17.7434 134.622 17.2983C135.133 16.8485 135.723 16.5123 136.39 16.2898C137.063 16.0625 137.78 15.9489 138.542 15.9489C139.063 15.9489 139.572 16.0104 140.069 16.1335C140.571 16.2566 141.014 16.4602 141.397 16.7443C141.786 17.0237 142.07 17.4048 142.25 17.8878C142.434 18.3707 142.465 18.9744 142.342 19.6989L141.127 27H138.656L138.912 25.5014H138.826C138.623 25.8045 138.358 26.0885 138.031 26.3537C137.704 26.6141 137.316 26.8248 136.866 26.9858C136.416 27.142 135.907 27.2202 135.339 27.2202ZM136.312 25.331C136.828 25.331 137.292 25.2292 137.704 25.0256C138.116 24.8172 138.455 24.5426 138.72 24.2017C138.985 23.8608 139.151 23.4891 139.217 23.0866L139.43 21.8011C139.335 21.8674 139.189 21.929 138.99 21.9858C138.791 22.0426 138.568 22.0923 138.322 22.1349C138.081 22.1776 137.842 22.2154 137.605 22.2486C137.368 22.2817 137.164 22.3101 136.994 22.3338C136.601 22.3859 136.241 22.4711 135.914 22.5895C135.592 22.7079 135.325 22.8736 135.112 23.0866C134.904 23.295 134.773 23.5649 134.721 23.8963C134.645 24.3651 134.757 24.7225 135.055 24.9688C135.353 25.2102 135.772 25.331 136.312 25.331ZM153.663 18.9744L151.298 19.2301C151.274 18.9886 151.201 18.7637 151.078 18.5554C150.955 18.3471 150.77 18.1813 150.524 18.0582C150.282 17.9304 149.97 17.8665 149.586 17.8665C149.028 17.8665 148.538 17.992 148.116 18.2429C147.695 18.4938 147.456 18.8158 147.399 19.2088C147.347 19.5024 147.418 19.7415 147.612 19.9261C147.806 20.1108 148.166 20.267 148.691 20.3949L150.495 20.7926C151.49 21.0152 152.205 21.375 152.64 21.8722C153.081 22.3693 153.234 23.0204 153.102 23.8253C152.988 24.4976 152.695 25.0895 152.221 25.6009C151.748 26.1075 151.142 26.5028 150.403 26.7869C149.669 27.071 148.855 27.2131 147.96 27.2131C146.601 27.2131 145.555 26.9313 144.821 26.3679C144.092 25.7997 143.729 25.0185 143.734 24.0241L146.262 23.7827C146.291 24.2751 146.464 24.6468 146.781 24.8977C147.098 25.1439 147.538 25.2694 148.102 25.2741C148.736 25.2789 149.271 25.1463 149.707 24.8764C150.147 24.6018 150.396 24.268 150.453 23.875C150.5 23.5814 150.427 23.3423 150.233 23.1577C150.043 22.973 149.705 22.8262 149.217 22.7173L147.427 22.3267C146.414 22.1042 145.692 21.7277 145.261 21.1974C144.835 20.6624 144.69 19.9877 144.828 19.1733C144.941 18.5104 145.218 17.9399 145.659 17.4616C146.104 16.9787 146.674 16.607 147.37 16.3466C148.066 16.0814 148.845 15.9489 149.707 15.9489C151.004 15.9489 151.982 16.2211 152.64 16.7656C153.298 17.3101 153.639 18.0464 153.663 18.9744ZM161.955 16.0909L161.621 18.0795H155.357L155.684 16.0909H161.955ZM157.658 13.4773H160.229L158.525 23.7188C158.472 24.0644 158.482 24.3295 158.553 24.5142C158.629 24.6941 158.749 24.8172 158.915 24.8835C159.086 24.9498 159.277 24.983 159.49 24.983C159.647 24.983 159.793 24.9711 159.931 24.9474C160.068 24.919 160.177 24.8977 160.257 24.8835L160.371 26.8935C160.215 26.9408 160.004 26.9929 159.739 27.0497C159.479 27.1065 159.166 27.1397 158.801 27.1491C158.148 27.1634 157.58 27.0639 157.097 26.8509C156.619 26.633 156.268 26.2992 156.046 25.8494C155.828 25.3949 155.778 24.8267 155.897 24.1449L157.658 13.4773Z" fill="#FF7A00"/>
</svg>
